<mxfile>
    <diagram id="bgaUhcgl6Ks4pTeGLNoc" name="Diagram">
        <mxGraphModel dx="648" dy="575" grid="1" gridSize="10" guides="1" tooltips="1" connect="1" arrows="1" fold="1" page="1" pageScale="1" pageWidth="827" pageHeight="1169" background="none" math="0" shadow="0">
            <root>
                <mxCell id="0"/>
                <mxCell id="1" parent="0"/>
                <mxCell id="W6fIEdw_na3CiRxA3SF--59" value="&lt;b&gt;Components&lt;br&gt;&lt;/b&gt;" style="shape=umlFrame;whiteSpace=wrap;html=1;shadow=0;glass=0;labelBackgroundColor=none;width=100;height=30;sketch=1;" parent="1" vertex="1">
                    <mxGeometry width="400" height="420" as="geometry"/>
                </mxCell>
                <mxCell id="95" style="edgeStyle=orthogonalEdgeStyle;sketch=1;orthogonalLoop=1;jettySize=auto;html=1;startArrow=classic;startFill=1;" edge="1" parent="1" source="65" target="67">
                    <mxGeometry relative="1" as="geometry"/>
                </mxCell>
                <mxCell id="65" value="&lt;i&gt;Database&lt;/i&gt;" style="shape=datastore;whiteSpace=wrap;html=1;sketch=1;fillColor=#4400A3;verticalAlign=top;labelPosition=center;verticalLabelPosition=bottom;align=center;" parent="1" vertex="1">
                    <mxGeometry x="40" y="305" width="50" height="60" as="geometry"/>
                </mxCell>
                <mxCell id="84" style="edgeStyle=orthogonalEdgeStyle;orthogonalLoop=1;jettySize=auto;html=1;entryX=0;entryY=0.5;entryDx=0;entryDy=0;entryPerimeter=0;sketch=1;startArrow=classic;startFill=1;" parent="1" source="67" target="76" edge="1">
                    <mxGeometry relative="1" as="geometry"/>
                </mxCell>
                <mxCell id="90" style="edgeStyle=orthogonalEdgeStyle;orthogonalLoop=1;jettySize=auto;html=1;sketch=1;dashed=1;startArrow=none;startFill=0;" parent="1" source="67" target="92" edge="1">
                    <mxGeometry relative="1" as="geometry">
                        <mxPoint x="320.25" y="335.1" as="targetPoint"/>
                    </mxGeometry>
                </mxCell>
                <mxCell id="67" value="&lt;b&gt;Server&lt;/b&gt;" style="outlineConnect=0;dashed=0;verticalLabelPosition=bottom;verticalAlign=top;align=center;html=1;shape=mxgraph.aws3.traditional_server;gradientColor=none;fillColor=#6A00FF;sketch=1;" parent="1" vertex="1">
                    <mxGeometry x="160" y="303.5" width="46.5" height="63" as="geometry"/>
                </mxCell>
                <mxCell id="71" value="&lt;b&gt;Client.Desktop&lt;/b&gt;" style="outlineConnect=0;dashed=0;verticalLabelPosition=bottom;verticalAlign=top;align=center;html=1;shape=mxgraph.aws3.management_console;gradientColor=none;sketch=1;fillColor=#80451B;" parent="1" vertex="1">
                    <mxGeometry x="143.5" y="50" width="63" height="63" as="geometry"/>
                </mxCell>
                <mxCell id="72" value="&lt;i&gt;Client.Mobile&lt;/i&gt;" style="outlineConnect=0;dashed=0;verticalLabelPosition=bottom;verticalAlign=top;align=center;html=1;shape=mxgraph.aws3.mobile_client;gradientColor=none;sketch=1;fillColor=#80451B;" parent="1" vertex="1">
                    <mxGeometry x="279.75" y="50" width="40.5" height="63" as="geometry"/>
                </mxCell>
                <mxCell id="82" style="edgeStyle=orthogonalEdgeStyle;orthogonalLoop=1;jettySize=auto;html=1;entryX=1;entryY=0.5;entryDx=0;entryDy=0;entryPerimeter=0;sketch=1;startArrow=classic;startFill=1;" parent="1" source="76" target="71" edge="1">
                    <mxGeometry relative="1" as="geometry">
                        <Array as="points">
                            <mxPoint x="230" y="82"/>
                        </Array>
                    </mxGeometry>
                </mxCell>
                <mxCell id="83" style="edgeStyle=orthogonalEdgeStyle;orthogonalLoop=1;jettySize=auto;html=1;entryX=0;entryY=0.5;entryDx=0;entryDy=0;entryPerimeter=0;sketch=1;startArrow=classic;startFill=1;" parent="1" source="76" target="72" edge="1">
                    <mxGeometry relative="1" as="geometry">
                        <Array as="points">
                            <mxPoint x="250" y="82"/>
                        </Array>
                    </mxGeometry>
                </mxCell>
                <mxCell id="86" style="edgeStyle=orthogonalEdgeStyle;orthogonalLoop=1;jettySize=auto;html=1;dashed=1;sketch=1;" parent="1" source="76" target="92" edge="1">
                    <mxGeometry relative="1" as="geometry">
                        <mxPoint x="403.29999999999995" y="309.38" as="targetPoint"/>
                    </mxGeometry>
                </mxCell>
                <mxCell id="76" value="&lt;b&gt;Client.Core&lt;/b&gt;" style="outlineConnect=0;dashed=0;verticalLabelPosition=bottom;verticalAlign=top;align=center;html=1;shape=mxgraph.aws3.emr_engine;fillColor=#F58534;gradientColor=none;sketch=1;" parent="1" vertex="1">
                    <mxGeometry x="202.5" y="150" width="82.5" height="60" as="geometry"/>
                </mxCell>
                <mxCell id="87" value="&lt;b&gt;Server&lt;br&gt;&lt;/b&gt;" style="shape=umlFrame;whiteSpace=wrap;html=1;shadow=0;glass=0;labelBackgroundColor=none;width=60;height=30;sketch=1;" parent="1" vertex="1">
                    <mxGeometry x="20" y="260" width="220" height="145" as="geometry"/>
                </mxCell>
                <mxCell id="88" value="&lt;b&gt;Client&lt;br&gt;&lt;/b&gt;" style="shape=umlFrame;whiteSpace=wrap;html=1;shadow=0;glass=0;labelBackgroundColor=none;width=60;height=30;sketch=1;" parent="1" vertex="1">
                    <mxGeometry x="120" y="10" width="260" height="230" as="geometry"/>
                </mxCell>
                <mxCell id="92" value="&lt;b&gt;Utilities.Cryptography&lt;/b&gt;" style="shadow=0;dashed=0;html=1;labelPosition=center;verticalLabelPosition=bottom;verticalAlign=top;align=center;outlineConnect=0;shape=mxgraph.veeam.library;sketch=1;fillColor=#60A917;" parent="1" vertex="1">
                    <mxGeometry x="300" y="316.6" width="48" height="36.8" as="geometry"/>
                </mxCell>
            </root>
        </mxGraphModel>
    </diagram>
</mxfile>
